<svg xmlns="http://www.w3.org/2000/svg" viewBox="0 0 512 512"><defs><style>.cls-1,.cls-5{fill:#fff;}.cls-2{fill:none;}.cls-2,.cls-4,.cls-5{stroke:#000;stroke-miterlimit:10;stroke-width:5px;}.cls-3{fill:#fbd764;}.cls-4{fill:#bcebdd;}.cls-6{font-size:36px;font-family:Roboto-Bold, Roboto Bold;font-weight:700;}</style></defs><title>build</title><g id="レイヤー_2" data-name="レイヤー 2"><g id="Think_Imagine" data-name="Think &amp; Imagine"><rect class="cls-1" width="512" height="512"/><rect class="cls-2" x="144.25" y="208" width="64" height="32"/><rect class="cls-2" x="176.25" y="176" width="64" height="32"/><rect class="cls-2" x="176.25" y="240" width="64" height="32"/><rect class="cls-2" x="208.25" y="208" width="64" height="32"/><rect class="cls-2" x="239.75" y="240" width="64" height="32"/><rect class="cls-2" x="271.75" y="208" width="64" height="32"/><rect class="cls-2" x="271.75" y="272" width="64" height="32"/><rect class="cls-2" x="303.75" y="240" width="64" height="32"/><rect class="cls-3" x="239.75" y="108.21" width="32.5" height="211.79"/><polyline class="cls-2" points="239.75 111.57 239.75 320 255.75 368 271.75 320 271.75 111.57"/><line class="cls-2" x1="255.75" y1="320" x2="255.75" y2="121.23"/><line class="cls-2" x1="271.75" y1="320" x2="271.75" y2="121.23"/><line class="cls-2" x1="239.75" y1="320" x2="271.75" y2="320"/><line class="cls-2" x1="260.13" y1="354.86" x2="251.37" y2="354.86"/><path class="cls-4" d="M322.56,81.12c0,10.26-11.28,18.56-25.21,18.56v16.64c13.93,0,25.21,8.3,25.21,18.56H336V81.12Z"/><path class="cls-4" d="M255.36,81.12C213.81,81.12,189,90.64,168,108l6.72,13.44c17.64-13.44,47-9.52,59,2.5"/><path class="cls-4" d="M322.56,101.28c-26.88,0-37-3.63-52.54-15.81v45.06c15.58-12.18,25.66-15.81,52.54-15.81"/><path class="cls-4" d="M282.24,108a26.88,26.88,0,1,1-26.88-26.88A26.88,26.88,0,0,1,282.24,108Z"/><path class="cls-5" d="M262.08,108a6.72,6.72,0,1,1-6.72-6.72A6.72,6.72,0,0,1,262.08,108Z"/><line class="cls-2" x1="322.56" y1="134.88" x2="322.56" y2="81.12"/><text class="cls-6" transform="translate(209.81 432)">BUILD</text></g></g></svg>